<svg version="1.1"
	 xmlns="http://www.w3.org/2000/svg" xmlns:xlink="http://www.w3.org/1999/xlink" xmlns:a="http://ns.adobe.com/AdobeSVGViewerExtensions/3.0/"
	 x="0px" y="0px" width="212.3px" height="212.3px" viewBox="0 0 212.3 212.3" style="enable-background:new 0 0 212.3 212.3;"
	 xml:space="preserve">
<style type="text/css">
	.st0{fill:#F15A22;}
	.st1{fill:#606A70;}
</style>
<defs>
</defs>
<g>
	<path class="st0" d="M185.4,83.9h-25.5l-9.2,9.2c-0.6,0.6-1.1,1.2-1.6,1.8h36.3c8.6,0,15.9,5.2,15.9,11.2c0,6.1-7.3,11.2-15.9,11.2
		h-36.3c0.5,0.6,1,1.2,1.6,1.8l9.2,9.2h25.5c14.8,0,26.9-10,26.9-22.2C212.3,93.9,200.2,83.9,185.4,83.9"/>
	<path class="st0" d="M119.2,150.6c-0.6-0.6-1.2-1.1-1.8-1.6v36.3c0,8.6-5.2,15.9-11.2,15.9c-6.1,0-11.2-7.3-11.2-15.9v-36.3
		c-0.6,0.5-1.2,1-1.8,1.6l-9.2,9.2v25.5c0,14.8,10,26.9,22.2,26.9c12.3,0,22.2-12.1,22.2-26.9v-25.5L119.2,150.6z"/>
	<path class="st0" d="M52.4,128.4l9.2-9.2c0.6-0.6,1.1-1.2,1.6-1.8H26.9c-8.6,0-15.9-5.2-15.9-11.2c0-6.1,7.3-11.2,15.9-11.2h36.3
		c-0.5-0.6-1-1.2-1.6-1.8l-9.2-9.2H26.9C12.1,83.9,0,93.9,0,106.1c0,12.3,12.1,22.2,26.9,22.2H52.4z"/>
	<path class="st0" d="M93.1,61.6c0.6,0.6,1.2,1.1,1.8,1.6V26.9c0-8.6,5.2-15.9,11.2-15.9c6.1,0,11.2,7.3,11.2,15.9v36.3
		c0.6-0.5,1.2-1,1.8-1.6l9.2-9.2V26.9c0-14.8-10-26.9-22.2-26.9C93.9,0,83.9,12.1,83.9,26.9v25.5L93.1,61.6z"/>
	<path class="st1" d="M146.4,34.4l-27.3,27.3c-7.2,7.2-18.9,7.2-26.1,0L65.8,34.4c-10.5-10.5-26.1-11.9-34.7-3.3
		c-8.7,8.7-7.2,24.3,3.3,34.7l27.3,27.3c7.2,7.2,7.2,18.9,0,26.1l-27.3,27.3c-10.5,10.5-11.9,26.1-3.3,34.7
		c8.7,8.7,24.3,7.2,34.7-3.3l27.3-27.3c7.2-7.2,18.9-7.2,26.1,0l27.3,27.3c10.5,10.5,26.1,11.9,34.7,3.3c8.7-8.7,7.2-24.3-3.3-34.7
		l-27.3-27.3c-7.2-7.2-7.2-18.9,0-26.1l27.3-27.3c10.5-10.5,11.9-26.1,3.3-34.7C172.5,22.4,156.9,23.9,146.4,34.4 M170.1,58
		l-27.3,27.3c-11.5,11.5-11.5,30.2,0,41.7l27.3,27.3c6.1,6.1,7.6,14.9,3.3,19.2c-4.3,4.3-13.1,2.8-19.2-3.3L127,142.9
		c-11.5-11.5-30.2-11.5-41.7,0L58,170.1c-6.1,6.1-14.9,7.6-19.2,3.3c-4.3-4.3-2.8-13.1,3.3-19.2L69.4,127
		c11.5-11.5,11.5-30.2,0-41.7L42.1,58C36,52,34.6,43.2,38.9,38.9C43.2,34.5,52,36,58,42.1l27.3,27.3c11.5,11.5,30.2,11.5,41.7,0
		l27.3-27.3c6.1-6.1,14.9-7.6,19.2-3.3C177.7,43.2,176.2,52,170.1,58"/>
</g>
</svg>
